PathFileType	4	(X/Y/Z)	D:\TRACE\spot_10-12-23\spot_arm_body_motion_3_5-platform.trc
DataRate	CameraRate	NumFrames	NumMarkers	Units	OrigDataRate	OrigDataStartFrame	OrigNumFrames
100.00	100.00	      60	5	mm	100.00	4376	      7000
Frame#	Time	Left_Front			Right_Front			Left_Aft			Right_Aft			Post			
		X1	Y1	Z1	X2	Y2	Z2	X3	Y3	Z3	X4	Y4	Z4	X5	Y5	Z5	

4376	43.750	-784.99133	-65.53826	-655.07227	787.06781	-60.24419	-648.05658	-702.68250	52.58190	477.00165	714.67322	66.18636	562.71698	-1.95560	634.40454	-1049.99500	
4377	43.760	-784.91406	-66.54524	-654.97064	787.41547	-61.00264	-647.87726	-702.70471	52.78860	476.87268	714.78748	66.53783	562.57733	-1.92687	633.90106	-1050.54175	
4378	43.770	-784.84082	-66.74400	-655.04999	787.42633	-61.27693	-648.04156	-702.87415	53.11099	476.83057	714.68909	66.76278	562.47809	-1.95442	633.49390	-1050.80725	
4379	43.780	-784.86908	-66.73607	-655.07385	787.29089	-61.22655	-648.19287	-702.74847	53.08800	476.78528	714.59991	66.96906	562.30151	-1.87700	632.85602	-1051.14929	
4380	43.790	-785.07288	-66.70160	-655.13928	787.31714	-61.49937	-648.13885	-702.78412	53.49764	476.64819	714.64648	67.29746	562.20996	-1.93160	632.19879	-1051.55200	
4381	43.800	-785.02081	-67.28480	-655.13373	787.37677	-61.93828	-648.04944	-702.73822	53.89322	476.37283	714.63403	67.70282	562.03497	-1.97300	631.72461	-1052.09375	
4382	43.810	-784.97125	-67.97582	-655.17365	787.32172	-62.26787	-648.16638	-702.70087	54.25969	476.40512	714.59650	67.99393	561.98206	-1.74894	631.00360	-1052.69629	
4383	43.820	-785.10278	-68.39453	-655.20471	787.10004	-62.75971	-648.46716	-702.44971	54.35276	476.16843	714.54797	68.17527	561.87213	-1.58175	630.34155	-1052.89465	
4384	43.830	-785.13306	-68.85593	-655.28632	787.02393	-63.34639	-648.62091	-702.46118	54.42942	476.12164	714.53613	68.24790	561.69250	-1.78703	629.61359	-1053.27832	
4385	43.840	-785.00403	-68.93808	-655.33270	787.40106	-63.94238	-648.52271	-702.42279	54.70154	475.98795	714.71075	68.63817	561.55011	-1.77523	629.01251	-1053.56506	
4386	43.850	-784.79541	-69.39257	-655.44666	787.67090	-64.22455	-648.37604	-702.36591	55.18116	475.92029	714.81921	69.14601	561.43481	-1.56996	628.27899	-1054.03333	
4387	43.860	-785.01398	-69.76356	-655.40198	787.65405	-64.37301	-648.41479	-702.40216	55.55256	475.75247	714.97595	69.67040	561.26331	-1.77050	627.78815	-1054.67175	
4388	43.870	-784.75171	-70.43209	-655.48779	787.70398	-64.71381	-648.41864	-702.35919	55.72443	475.67667	715.00671	69.94678	561.11792	-1.69752	627.11768	-1055.35046	
4389	43.880	-784.77411	-70.92370	-655.48212	787.64783	-65.39547	-648.59790	-702.29980	55.83419	475.46039	715.06317	70.08220	560.91254	-1.67237	626.45575	-1055.54895	
4390	43.890	-784.71759	-71.10293	-655.57147	787.45660	-65.86668	-648.87152	-702.24280	55.95297	475.39444	715.15466	70.36127	560.79437	-1.51912	625.63708	-1055.96570	
4391	43.900	-784.64221	-71.48873	-655.55115	787.53760	-66.15460	-648.85870	-702.20898	56.20922	475.30048	715.05536	70.75487	560.76843	-1.40230	625.01520	-1056.28638	
4392	43.910	-784.61407	-71.85035	-655.59033	787.71631	-66.55807	-648.70392	-702.09930	56.55039	475.21198	715.18341	71.13555	560.53497	-1.08848	624.50079	-1056.89661	
4393	43.920	-784.60425	-72.29260	-655.66724	787.78687	-67.02577	-648.79993	-702.00934	56.95431	475.09503	715.24011	71.39381	560.37097	-1.16447	624.07330	-1057.50684	
4394	43.930	-784.46240	-72.81298	-655.72113	787.89270	-67.27596	-648.89392	-702.03766	57.19798	474.86160	715.27551	71.55460	560.24463	-1.30059	623.41101	-1057.92163	
4395	43.940	-784.18402	-73.25893	-655.78326	787.98041	-67.57417	-649.00385	-702.00586	57.35137	474.66705	715.29034	71.74560	560.14960	-1.30545	622.69971	-1058.32947	
4396	43.950	-783.95154	-73.73370	-655.93732	788.17175	-67.95708	-648.94971	-701.89142	57.71624	474.52774	715.35657	72.16790	560.10138	-0.85820	621.95703	-1058.69385	
4397	43.960	-783.96356	-73.99735	-655.87585	788.26434	-68.35172	-648.86835	-701.71991	58.09148	474.52130	715.42389	72.52507	560.12665	-0.71530	621.54108	-1059.36584	
4398	43.970	-784.00970	-74.27306	-655.90930	788.42017	-68.65427	-648.86261	-701.60071	58.25724	474.49048	715.55371	73.18513	560.67413	-0.77959	621.01721	-1059.97827	
4399	43.980	-783.96570	-74.61544	-655.90265	788.46173	-69.05759	-649.04272	-701.54865	58.38934	474.33319	715.79724	73.47552	560.43976	-0.97509	620.28522	-1060.56946	
4400	43.990	-784.00531	-74.90942	-655.98102	788.39380	-69.75436	-649.18707	-701.46271	58.62810	474.17047	715.88049	73.58929	560.31677	-0.76613	619.47424	-1061.08020	
4401	44.000	-783.87701	-75.53684	-655.92877	788.56451	-70.31097	-649.27649	-701.38873	58.80286	474.03043	715.91827	73.78489	560.25281	-0.25325	618.90448	-1061.55969	
4402	44.010	-783.65631	-75.96175	-655.93030	788.72821	-70.51929	-649.29260	-701.28192	58.93652	473.90918	717.02972	74.31818	559.94598	-0.29738	618.49219	-1061.85999	
4403	44.020	-783.40308	-76.23954	-656.00433	788.74347	-70.65871	-649.26276	-701.24664	59.14721	473.71191	716.17767	74.52184	560.02582	-0.27717	617.85345	-1062.41577	
4404	44.030	-783.22021	-76.57244	-656.07233	788.72137	-70.86652	-649.34094	-701.09100	59.45117	473.77972	716.78204	74.80460	559.70154	-0.19071	617.31323	-1063.09375	
4405	44.040	-783.17804	-76.89946	-656.13861	789.00104	-71.24026	-649.43463	-700.98157	59.68016	473.53708	716.59106	75.09787	559.58301	0.02007	616.75299	-1063.59033	
4406	44.050	-783.21844	-77.11739	-656.20789	789.19434	-71.55566	-649.41461	-700.85437	59.99799	473.47467	716.61877	75.23904	559.36835	0.25190	616.17004	-1063.89880	
4407	44.060	-783.14569	-77.51176	-656.26807	789.29553	-71.98866	-649.38043	-700.68915	60.23489	473.39160	716.70007	75.36908	559.26587	0.45081	615.36823	-1064.40308	
4408	44.070	-783.05707	-77.71349	-656.33350	789.37000	-72.40881	-649.30890	-700.55188	60.43094	473.29892	716.86725	75.60337	559.17346	0.37372	615.09100	-1064.80176	
4409	44.080	-783.02496	-77.81274	-656.34497	789.56879	-72.64413	-649.42041	-700.53674	60.65772	473.26968	716.99963	75.77718	558.56866	0.46453	614.64258	-1065.68213	
4410	44.090	-783.12616	-77.94265	-656.39258	789.71106	-72.70599	-649.42133	-700.39520	60.90100	473.14133	717.13013	76.21572	558.87793	0.54398	614.06409	-1066.01086	
4411	44.100	-782.69226	-78.57678	-656.52667	789.77985	-73.17097	-649.54767	-700.34064	61.09366	472.97394	717.22205	76.36676	558.81134	0.73613	613.45575	-1066.36926	
4412	44.110	-782.35809	-79.22666	-656.58881	789.98120	-73.62643	-649.65063	-700.20972	61.16071	472.86777	717.32642	76.51551	558.72070	0.71918	613.00488	-1066.69910	
4413	44.120	-782.11218	-79.54971	-656.63043	790.15808	-73.83247	-649.65302	-700.08740	61.26756	472.73260	717.49811	76.67542	558.62726	0.86269	612.55920	-1066.94751	
4414	44.130	-781.96906	-79.72314	-656.70782	790.31348	-73.99005	-649.65613	-699.85791	61.51222	472.71683	717.64795	76.89734	558.55408	1.47073	612.27020	-1067.50000	
4415	44.140	-781.87433	-79.89029	-656.75085	790.40295	-74.16451	-649.66193	-699.57684	61.70246	472.68411	717.80145	77.17167	558.52625	1.49899	612.00775	-1067.90991	
4416	44.150	-781.70190	-80.01573	-656.76782	790.61530	-74.36143	-649.68787	-699.38318	61.86004	472.70197	717.99054	77.33295	558.53351	1.37751	611.65094	-1068.17297	
4417	44.160	-781.50287	-80.29324	-656.71381	790.77563	-74.53443	-649.69604	-699.24841	61.90158	472.64719	718.14862	77.37437	558.50458	1.60965	611.28394	-1068.52002	
4418	44.170	-781.20190	-80.56248	-656.70465	791.01172	-74.68169	-649.74017	-699.08423	61.94828	472.60980	718.30585	77.42638	558.42688	1.86095	610.95221	-1068.75696	
4419	44.180	-780.98566	-80.77857	-656.77673	791.19861	-74.83154	-649.74316	-698.95721	61.95927	472.54526	718.50378	77.58071	558.43829	1.98245	610.70135	-1068.96265	
4420	44.190	-780.81287	-80.83026	-656.82990	791.33557	-74.93296	-649.74445	-698.89044	62.09640	472.43356	718.66174	77.75904	558.40643	2.28474	610.48059	-1069.29199	
4421	44.200	-780.88763	-80.75592	-656.79712	791.44672	-75.02792	-649.71863	-698.75244	62.21432	472.39343	718.88605	77.95229	558.38867	2.39171	610.22119	-1069.48010	
4422	44.210	-780.73840	-80.84908	-656.79028	791.55225	-75.11481	-649.70911	-698.62671	62.31917	472.33951	719.12976	77.91775	557.72412	2.51189	610.02460	-1069.56030	
4423	44.220	-780.67969	-80.96847	-656.81573	791.65002	-75.22844	-649.74805	-698.43793	62.37181	472.31549	719.33142	77.93878	557.67297	2.53533	609.77551	-1069.59424	
4424	44.230	-780.57513	-81.09891	-656.83661	791.76917	-75.36588	-649.81641	-698.31860	62.42498	472.29456	719.51318	78.01162	557.57574	2.57294	609.55542	-1069.68140	
4425	44.240	-780.16803	-81.31898	-657.06836	791.91156	-75.42318	-649.83093	-698.14087	62.51576	472.23090	719.67377	78.09033	557.48895	2.80272	609.35547	-1069.77332	
4426	44.250	-780.00177	-81.38321	-657.13843	791.98779	-75.42741	-649.85620	-697.97418	62.63395	472.22433	719.87738	78.22169	557.46899	2.97773	609.26233	-1069.85120	
4427	44.260	-779.83978	-81.44555	-657.11884	792.12518	-75.49146	-649.87506	-697.80841	62.66788	472.22501	720.08398	78.31094	557.47137	3.25790	609.12415	-1069.89746	
4428	44.270	-779.65247	-81.57690	-657.05005	792.30188	-75.61073	-649.88043	-697.65265	62.70164	472.20212	720.26886	78.37963	557.44672	3.40195	609.05231	-1069.92236	
4429	44.280	-779.53467	-81.67415	-657.03387	792.40912	-75.70734	-649.92084	-697.46448	62.71108	472.16354	720.42426	78.39832	557.45428	3.49189	608.98871	-1069.94348	
4430	44.290	-779.47412	-81.68728	-657.01337	792.50220	-75.77107	-649.92468	-697.29620	62.67998	472.21405	720.55688	78.44585	557.43597	3.52143	608.98700	-1069.95239	
4431	44.300	-779.82281	-81.35322	-656.79443	792.62140	-75.82668	-649.95209	-697.14783	62.70051	472.17108	720.81750	78.43781	557.40149	3.59666	609.01385	-1069.91956	
4432	44.310	-779.66522	-81.28880	-656.77612	792.67194	-75.81651	-649.98474	-697.01831	62.67555	472.21069	720.31110	78.31106	557.58740	3.74261	609.08533	-1069.89307	
4433	44.320	-779.44220	-81.32704	-656.75073	792.74152	-75.82677	-649.98309	-696.95087	62.58778	472.24170	720.49567	78.29218	557.60260	3.86091	609.17468	-1069.80591	
4434	44.330	-779.36438	-81.37327	-656.75684	792.83813	-75.83347	-650.01123	-696.83197	62.49792	472.29434	720.61273	78.20744	557.63763	3.96695	609.21442	-1069.75049	
4435	44.340	-779.21063	-81.34027	-656.77075	792.98590	-75.83984	-650.06006	-696.75281	62.42045	472.30331	720.77441	78.14026	557.64807	4.05938	609.29541	-1069.69312	
